#!OML:ASF G:\JayActor3\Patient Classification 1\Patient 1\Session 6\male.ASF
:FULLY-SPECIFIED
:DEGREES
677
root 26.9851 15.1266 -16.0668 177.741 -47.4244 -174.17
lowerback 21.2358 0.317769 0.984082
upperback 9.78909 -0.668555 -0.926376
thorax -1.25198 -0.795698 -1.38851
lowerneck 11.7196 4.08382 8.27992
upperneck -0.911292 5.99198 -10.9054
head -1.58388 3.25699 -4.90828
rclavicle 2.90226e-014 -3.49861e-014
rhumerus -31.3637 12.1715 -90.5634
rradius 123.352
rwrist 15.5957
rhand 16.4701 -19.7814
rfingers 7.12502
rthumb 41.2336 -44.6231
lclavicle 2.90226e-014 -3.49861e-014
lhumerus -37.5066 -2.54769 82.7702
lradius 130.719
lwrist 5.83804
lhand 1.89189 33.8147
lfingers 7.12502
lthumb 27.4012 61.8422
rfemur -34.9558 -15.3343 21.91
rtibia 99.5335
rfoot -14.0811 -11.3934
rtoes -11.4616
lfemur -40.0582 23.19 -26.9308
ltibia 48.1317
lfoot -15.8727 2.54166
ltoes 12.3283
678
root 26.9075 15.1012 -16.0906 177.892 -47.2496 -174.34
lowerback 21.6172 0.349356 0.909604
upperback 9.94948 -0.690742 -1.06711
thorax -1.2695 -0.823304 -1.48978
lowerneck 11.9637 4.13138 8.27345
upperneck -0.962274 6.05613 -11.0193
head -1.62863 3.29764 -4.95308
rclavicle 7.11649e-014 -3.81667e-014
rhumerus -31.2147 12.2755 -90.47
rradius 123.33
rwrist 15.5528
rhand 16.4231 -19.7692
rfingers 7.12502
rthumb 41.1895 -44.625
lclavicle 7.11649e-014 -3.81667e-014
lhumerus -37.3213 -2.54712 82.7283
lradius 130.659
lwrist 5.73546
lhand 1.5981 33.6229
lfingers 7.12502
lthumb 27.1202 61.6946
rfemur -37.0561 -15.4582 21.8279
rtibia 101.749
rfoot -14.3306 -10.5508
rtoes -12.5949
lfemur -40.1592 23.2691 -27.0776
ltibia 48.841
lfoot -16.2464 2.41169
ltoes 13.1827
679
root 26.8313 15.0746 -16.1145 178.07 -47.0845 -174.563
lowerback 21.9943 0.387362 0.790256
upperback 10.1126 -0.71572 -1.21112
thorax -1.28108 -0.854085 -1.5687
lowerneck 12.1988 4.17743 8.25775
upperneck -1.00685 6.11761 -11.1087
head -1.67115 3.33609 -4.98848
rclavicle 1.90833e-014 2.46493e-014
rhumerus -31.0879 12.3632 -90.3813
rradius 123.315
rwrist 15.5001
rhand 16.3807 -19.7563
rfingers 7.12502
rthumb 41.1497 -44.6249
lclavicle 1.90833e-014 2.46493e-014
lhumerus -37.1594 -2.55781 82.7204
lradius 130.615
lwrist 5.69754
lhand 1.20762 33.4258
lfingers 7.12502
lthumb 26.7465 61.5552
rfemur -39.1803 -15.5485 21.7299
rtibia 103.892
rfoot -14.5449 -9.63364
rtoes -13.7594
lfemur -40.2384 23.3427 -27.254
ltibia 49.5343
lfoot -16.6801 2.28343
ltoes 13.72
680
root 26.757 15.0471 -16.1398 178.272 -46.9445 -174.817
lowerback 22.3521 0.427769 0.633456
upperback 10.2749 -0.746141 -1.35642
thorax -1.28309 -0.888648 -1.62682
lowerneck 12.4205 4.22123 8.24846
upperneck -1.03639 6.17795 -11.1761
head -1.7075 3.37285 -5.01751
rclavicle 8.0309e-014 -5.725e-014
rhumerus -30.9797 12.4269 -90.3109
rradius 123.313
rwrist 15.456
rhand 16.3449 -19.7402
rfingers 7.12502
rthumb 41.1161 -44.6196
lclavicle 8.0309e-014 -5.725e-014
lhumerus -37.0218 -2.58175 82.7276
lradius 130.59
lwrist 5.71853
lhand 0.773876 33.2442
lfingers 7.12502
lthumb 26.3314 61.4364
rfemur -41.3336 -15.6198 21.6435
rtibia 105.949
rfoot -14.7423 -8.69188
rtoes -14.9438
lfemur -40.3137 23.4057 -27.448
ltibia 50.215
lfoot -17.1442 2.15072
ltoes 13.9988
681
root 26.6843 15.0195 -16.1672 178.499 -46.8399 -175.094
lowerback 22.6814 0.470482 0.44978
upperback 10.4315 -0.778709 -1.50315
thorax -1.27636 -0.924495 -1.67101
lowerneck 12.6199 4.25614 8.26559
upperneck -1.03352 6.23128 -11.232
head -1.73081 3.40467 -5.04578
rclavicle 9.38264e-014 -7.15625e-014
rhumerus -30.8884 12.4356 -90.2708
rradius 123.314
rwrist 15.4449
rhand 16.3309 -19.7168
rfingers 7.12502
rthumb 41.1029 -44.6004
lclavicle 9.38264e-014 -7.15625e-014
lhumerus -36.909 -2.62874 82.7412
lradius 130.581
lwrist 5.77293
lhand 0.374667 33.0966
lfingers 7.12502
lthumb 25.9492 61.3453
rfemur -43.5101 -15.6857 21.5763
rtibia 107.907
rfoot -14.945 -7.7589
rtoes -16.0868
lfemur -40.3918 23.4533 -27.6569
ltibia 50.8818
lfoot -17.617 2.0166
ltoes 14.084
682
root 26.6125 14.9922 -16.1969 178.746 -46.7729 -175.388
lowerback 22.9804 0.510669 0.247943
upperback 10.5797 -0.817059 -1.64933
thorax -1.26319 -0.962953 -1.70322
lowerneck 12.809 4.28617 8.29864
upperneck -1.00137 6.28186 -11.2741
head -1.74385 3.43388 -5.0714
rclavicle 2.22639e-014 -6.44062e-014
rhumerus -30.8265 12.4138 -90.2515
rradius 123.324
rwrist 15.4706
rhand 16.3331 -19.6905
rfingers 7.12502
rthumb 41.105 -44.5735
lclavicle 2.22639e-014 -6.44062e-014
lhumerus -36.8244 -2.68398 82.7516
lradius 130.588
lwrist 5.84265
lhand 0.0681698 32.9923
lfingers 7.12502
lthumb 25.6557 61.2836
rfemur -45.6934 -15.7571 21.5271
rtibia 109.751
rfoot -15.1569 -6.87749
rtoes -17.2286
lfemur -40.4636 23.4859 -27.8777
ltibia 51.5302
lfoot -18.0905 1.884
ltoes 14.0254
